<svg id="Layer_1" data-name="Layer 1" xmlns="http://www.w3.org/2000/svg" xmlns:xlink="http://www.w3.org/1999/xlink" viewBox="0 0 334.49 77.32"><defs><style>.cls-1{fill:#1a1a1a;}.cls-2{fill:url(#linear-gradient);}.cls-3{fill:#800112;opacity:0.25;}.cls-4{fill:#e5e5e5;}.cls-5{fill:#5c6a79;opacity:0.4;}</style><linearGradient id="linear-gradient" x1="78.25" y1="55.5" x2="78.25" y2="132.92" gradientTransform="translate(7.24 -69.85) rotate(8.75)" gradientUnits="userSpaceOnUse"><stop offset="0" stop-color="#f1c40f"/><stop offset="1" stop-color="#ff2d00"/></linearGradient></defs><title>header-logo</title><path class="cls-1" d="M282.12,11.31v-.09l52.36,0-17.6,41.58-3.64,23.63-102.57-.09a26.46,26.46,0,0,1-7.19.94,24.77,24.77,0,0,1-7-.93l-130.76-.1,0-.27a27,27,0,0,1-8,1.21A23.37,23.37,0,0,1,47.53,75a19.11,19.11,0,0,1-3.21-2,21.38,21.38,0,0,1-6.12,2.43,42.44,42.44,0,0,1-9.46.83H0L11.74,0H30.58c4.72,0,11.07,0,15.61,1.41A18.41,18.41,0,0,1,56.63,9a14,14,0,0,1,1.13,2,27.14,27.14,0,0,1,7-.93,25.79,25.79,0,0,1,6.69.91l48.86,0,1.7-11,61.5.05-1.7,11,20.46,0v.06a26.7,26.7,0,0,1,7.34-.95,26.28,26.28,0,0,1,7.12.88l61.29.05h0c1.33,0,2.71,0,4.08.09Z"/><path class="cls-2" d="M20.87,10.67l9.69,0c6.26,0,10.43.31,12.52.94a7.88,7.88,0,0,1,4.54,3.14A9,9,0,0,1,49,19.59a85.63,85.63,0,0,1-1.19,10.47l-3,19.22a52.6,52.6,0,0,1-2.15,9.9,9.31,9.31,0,0,1-2.8,3.9A10.26,10.26,0,0,1,35.76,65a32.48,32.48,0,0,1-7,.57H12.42Zm98.65,11.1-.83,43.87H108.13l.64-7.87H105l-1.79,7.88H92.54l12-43.89ZM109.7,50c.25-5,.69-11.12,1.28-18.46C108.65,40,107,46.09,106.18,50Zm-8.38-28.25L100,30.53H93.89l-5.4,35.1H78.1l5.41-35.13-6.14,0,1.35-8.79ZM72.65,47.45C72,51.88,71.4,55,70.91,56.81a13.16,13.16,0,0,1-2.52,5,12.41,12.41,0,0,1-4.57,3.51,14.5,14.5,0,0,1-6.08,1.2,12.22,12.22,0,0,1-5.54-1.15A7.6,7.6,0,0,1,48.63,62a10,10,0,0,1-1.06-5c.1-1.79.46-5,1.16-9.48l1.15-7.49c.68-4.41,1.25-7.54,1.74-9.36a12.74,12.74,0,0,1,2.52-5A12.39,12.39,0,0,1,58.72,22a14.53,14.53,0,0,1,6.05-1.2A12.75,12.75,0,0,1,70.35,22a7.72,7.72,0,0,1,3.53,3.46,9.66,9.66,0,0,1,1.09,5c-.1,1.79-.47,5-1.16,9.48ZM64.49,33a15,15,0,0,0,.3-3.92,1,1,0,0,0-1.11-.83,1.53,1.53,0,0,0-1.31.67c-.37.45-.7,1.82-1,4.08L58.18,53.52a22.87,22.87,0,0,0-.45,4.69,1,1,0,0,0,1.15.9,1.54,1.54,0,0,0,1.48-1,27.56,27.56,0,0,0,1-4.9Zm-32.1-13L26.83,56.22c1.84,0,3-.4,3.59-1.22s1.11-3.08,1.67-6.75l3.29-21.37a31.25,31.25,0,0,0,.52-4.76,1.89,1.89,0,0,0-.73-1.56,5.18,5.18,0,0,0-2.78-.49Z"/><path class="cls-3" d="M46.16,41.11,44.9,49.28a52.6,52.6,0,0,1-2.15,9.9,9.31,9.31,0,0,1-2.8,3.9A10.26,10.26,0,0,1,35.76,65a32.48,32.48,0,0,1-7,.57l-15,0,3.79-24.63,11.7.06L26.83,56.22a6.43,6.43,0,0,0,1.28-.07l0,.27c1.83,0,3-.41,3.59-1.22s1.11-3.08,1.67-6.75L34.46,41Zm73,.44-.46,24.09h-9.33L110,58l-1.27,0,0-.21H105l-1.79,7.88H93.84l6.62-24.2,7.82,0c-.9,3.53-1.61,6.37-2.09,8.53h1.26l0,.18h3.49c.15-2.56.33-5.46.55-8.67Zm-26.94-.18L88.48,65.62H79.36l3.74-24.31ZM72.65,47.45C72,51.88,71.4,55,70.91,56.81a13.16,13.16,0,0,1-2.52,5,12.41,12.41,0,0,1-4.57,3.51,14.5,14.5,0,0,1-6.08,1.2c-.57,0-1.14,0-1.67-.08a11.51,11.51,0,0,1-2.63-.89,7.48,7.48,0,0,1-3.56-3.44,9.71,9.71,0,0,1-1.06-5c.07-1.8.46-5,1.16-9.48l1-6.5,9.11,0-1.9,12.34a22.87,22.87,0,0,0-.45,4.69,1,1,0,0,0,1.15.9,1.51,1.51,0,0,0,.39,0,1.26,1.26,0,0,0,.81.21,1.48,1.48,0,0,0,1.48-1,24,24,0,0,0,1.06-4.89L64.5,41.23l9.11,0Z"/><path class="cls-4" d="M318.4,21.92l-11.87,28-2.44,15.87h-9.57L297,49.88l-3-28h9.48q.23,12.85-.14,17.31,2-7,5.56-17.32ZM171.1,10.79,162.65,65.7l-11.31,0,5.68-37-10.22,37h-7.92l.83-36.25-5.61,36.24H122.75l8.46-54.91,16.73,0c0,3.31-.12,7.23-.27,11.7l-.31,13.94,6.89-25.63Zm20.33,11-.83,43.9H180l.64-7.88h-3.73l-1.79,7.88-10.71,0,12-43.86Zm-9.83,28.25c.26-5,.69-11.12,1.28-18.49q-3.48,12.64-4.8,18.49ZM219,35.17h-9.63l.5-3.26a7,7,0,0,0,.08-2.91,1.15,1.15,0,0,0-1.14-.63,1.83,1.83,0,0,0-1.51.85,5.76,5.76,0,0,0-.88,2.54,7.35,7.35,0,0,0,0,3.29,6.86,6.86,0,0,0,2.5,2.7c4.14,3,6.64,5.51,7.52,7.45s1,5,.37,9.33a19.88,19.88,0,0,1-2.06,6.93,10.34,10.34,0,0,1-4.42,3.71,15.35,15.35,0,0,1-6.85,1.5,12.5,12.5,0,0,1-6.83-1.74,6.74,6.74,0,0,1-3.14-4.43,24.49,24.49,0,0,1,.27-7.6l.44-2.88h9.6L203,55.34a7.3,7.3,0,0,0-.07,3.18c.17.48.62.7,1.3.71a2,2,0,0,0,1.67-.89,6.28,6.28,0,0,0,.92-2.66c.4-2.59.33-4.28-.19-5.05a23.8,23.8,0,0,0-4.23-4A38,38,0,0,1,198,42.53,8,8,0,0,1,196.46,39a16.54,16.54,0,0,1,.07-5.74,20,20,0,0,1,2.28-7.38,10.24,10.24,0,0,1,4.35-3.63,15.08,15.08,0,0,1,6.46-1.32,13.86,13.86,0,0,1,6.64,1.44,6,6,0,0,1,3.2,3.62c.38,1.47.33,3.93-.21,7.43Zm27-13.3-1.35,8.76h-6.08l-5.41,35.13-10.38,0,5.41-35.1H222l1.35-8.76Zm2.38,0H265.6l-1.35,8.76h-6.89L256.07,39h6.44l-1.28,8.32h-6.44L253.3,57l7.61,0-1.35,8.76-18,0Zm20.91,0h7.31a50.2,50.2,0,0,1,9.81.61,5.65,5.65,0,0,1,3.75,3.19q1.22,2.58.37,8.18c-.53,3.41-1.27,5.7-2.21,6.88s-2.57,1.86-4.87,2.11c2,.54,3.23,1.31,3.78,2.24a5.79,5.79,0,0,1,.92,2.61,50.2,50.2,0,0,1-.75,6.48l-1.78,11.58H276l2.25-14.58c.36-2.35.41-3.82.16-4.37s-1.07-.86-2.49-.86l-3.05,19.81H262.51Zm9.2,7.5L277,39.13a4.75,4.75,0,0,0,2.52-.51c.5-.34.92-1.51,1.22-3.42l.37-2.41c.22-1.41.12-2.33-.24-2.75a3.12,3.12,0,0,0-2.37-.66Z"/><path class="cls-5" d="M309.57,42.71l-3,7.21-2.44,15.87-8.3,0,2.42-15.7-.81-7.44Zm-143.25-.88L162.65,65.7h-10l3.65-23.9Zm-12.93-.07-6.6,23.9h-6.71l.56-24Zm-15.6-.11-3.7,24-10.08,0,3.7-24Zm53.27.32L190.6,65.7h-9.33l.64-7.69h-1.26l0-.18h-3.73l-1.79,7.88h-9.42l6.5-23.83,7.85,0c-.88,3.36-1.54,6.08-2,8.15h1.26l0,.18h3.49c.14-2.48.33-5.25.53-8.31Zm23.12.16a11.2,11.2,0,0,1,2.3,3.06c.91,1.92,1,5,.37,9.33a19.88,19.88,0,0,1-2.06,6.93,10.34,10.34,0,0,1-4.42,3.71,15.35,15.35,0,0,1-6.85,1.5c-.66,0-1.29,0-1.91-.11a10.69,10.69,0,0,1-3.69-1.44,6.65,6.65,0,0,1-3.14-4.43,23.4,23.4,0,0,1,.24-7.61l.44-2.88h8.37L203,55.34a7.3,7.3,0,0,0-.07,3.18c.17.48.62.7,1.3.71a1.31,1.31,0,0,0,.34,0,1.51,1.51,0,0,0,.9.23,2,2,0,0,0,1.67-.89,6.35,6.35,0,0,0,.92-2.66c.4-2.59.33-4.28-.18-5.05a24.62,24.62,0,0,0-4.23-4,35.92,35.92,0,0,1-4.45-4.12,5.76,5.76,0,0,1-.5-.68Zm22.58.14-3.62,23.49-9.12,0,3.63-23.55Zm25.22.15-.75,4.91h-6.44L253.3,57h1.26l0,.18h6.35l-1.32,8.58h-16.7l3.61-23.43Zm23.18.14a15.63,15.63,0,0,1-1.73.3c2,.54,3.23,1.31,3.78,2.24a5.79,5.79,0,0,1,.92,2.61,50.2,50.2,0,0,1-.75,6.48l-1.78,11.58h-8.34l2.22-14.4c.36-2.35.41-3.82.16-4.37s-.9-.8-2.07-.83a5.31,5.31,0,0,0-1.65-.22l-3.05,19.81h-9.12l3.59-23.34Z"/></svg>