<svg id="Layer_1" data-name="Layer 1" xmlns="http://www.w3.org/2000/svg" xmlns:xlink="http://www.w3.org/1999/xlink" viewBox="0 0 318.24 312.52"><defs><style>.cls-1{fill:#e6e6e6;}.cls-2{fill:#1a1a1a;}.cls-3{fill:url(#radial-gradient);}.cls-22,.cls-4{fill:#800112;}.cls-4,.cls-6{opacity:0.3;}.cls-5{fill:url(#radial-gradient-2);}.cls-6{fill:#fef053;}.cls-7{fill:url(#radial-gradient-3);}.cls-8{fill:none;}.cls-9{fill:url(#radial-gradient-4);}.cls-10{fill:url(#radial-gradient-5);}.cls-11{fill:url(#radial-gradient-6);}.cls-12{fill:url(#radial-gradient-7);}.cls-13{fill:url(#radial-gradient-8);}.cls-14{fill:#5c6a79;opacity:0.4;}.cls-15{fill:url(#radial-gradient-9);}.cls-16{fill:url(#radial-gradient-10);}.cls-17{fill:url(#radial-gradient-11);}.cls-18{fill:url(#radial-gradient-12);}.cls-19{fill:url(#radial-gradient-13);}.cls-20{fill:url(#radial-gradient-14);}.cls-21{fill:url(#linear-gradient);}.cls-22{opacity:0.25;}.cls-23{fill:#e5e5e5;}</style><radialGradient id="radial-gradient" cx="152.98" cy="294.61" r="130.06" gradientUnits="userSpaceOnUse"><stop offset="0" stop-color="#f1c40f"/><stop offset="1" stop-color="#ff2d00"/></radialGradient><radialGradient id="radial-gradient-2" cx="64.98" cy="203.27" r="93.43" xlink:href="#radial-gradient"/><radialGradient id="radial-gradient-3" cx="263.65" cy="183.61" r="94.34" xlink:href="#radial-gradient"/><radialGradient id="radial-gradient-4" cx="156.63" cy="94.71" r="63.69" gradientUnits="userSpaceOnUse"><stop offset="0.09" stop-color="#f1c40f"/><stop offset="1" stop-color="#ff2d00"/></radialGradient><radialGradient id="radial-gradient-5" cx="156.63" cy="94.71" r="63.69" xlink:href="#radial-gradient-4"/><radialGradient id="radial-gradient-6" cx="156.63" cy="94.71" r="63.69" xlink:href="#radial-gradient-4"/><radialGradient id="radial-gradient-7" cx="156.63" cy="94.71" r="63.69" xlink:href="#radial-gradient-4"/><radialGradient id="radial-gradient-8" cx="130.97" cy="75.31" r="6.82" gradientUnits="userSpaceOnUse"><stop offset="0" stop-color="#ffffa2"/><stop offset="1" stop-color="#fff050"/></radialGradient><radialGradient id="radial-gradient-9" cx="182.28" cy="75.31" r="6.82" xlink:href="#radial-gradient-8"/><radialGradient id="radial-gradient-10" cx="156.98" cy="209.61" r="134.45" xlink:href="#radial-gradient"/><radialGradient id="radial-gradient-11" cx="155.98" cy="67.61" r="52.67" xlink:href="#radial-gradient"/><radialGradient id="radial-gradient-12" cx="100.97" cy="73.81" r="5.29" xlink:href="#radial-gradient-8"/><radialGradient id="radial-gradient-13" cx="155.98" cy="67.61" r="52.67" xlink:href="#radial-gradient"/><radialGradient id="radial-gradient-14" cx="213.14" cy="73.81" r="5.29" xlink:href="#radial-gradient-8"/><linearGradient id="linear-gradient" x1="65.74" y1="179.69" x2="65.74" y2="253.47" xlink:href="#radial-gradient"/></defs><title>logo</title><path class="cls-1" d="M93.88,36C93.32,25.34,97,17.09,100.6,7.82c.42,10,2.13,15.42,4.82,20.47A46,46,0,0,1,126,6.38c9.5-5,20-6.38,30.59-6.38s21.12,1.42,30.61,6.38a46,46,0,0,1,20.61,21.91,50.52,50.52,0,0,0,4.05-19.62c3.86,8.82,8,18,7.43,27.35l.42-.11,8.45-2.38-1.87,8.56c-1.93,9-1.22,18.45-3.06,27.55a14.58,14.58,0,0,1,1.81,5,75,75,0,0,1,17.09,20.47q8.59,2.81,17,6.18c-1.56-6.52-6.61-14.83-10.49-20.67,16.1,5.58,41.73,11.74,38,39.15,10.2-.91,18.85,2.55,26.76,5.7-5.64,1.53-15.05,6.66-17.89,11.2-2.3,3.63-1.22,10.35-.54,14.29l.34,1.81,22.87-3.51-12.36,48.81v26.65l-61.94,9.5a245.35,245.35,0,0,1-84.78,76.85l-2.55,1.42-2.55-1.42a248.75,248.75,0,0,1-66.22-52.92l-19.79,3a28.92,28.92,0,0,1-7.2,2,27,27,0,0,1-12.3-.79c-.4-.11-.79-.26-1.19-.4a23.94,23.94,0,0,1-4,2,43.25,43.25,0,0,1-10,2.5L.25,271.59V187.43L22.48,184c.62-.09,1.25-.17,1.9-.28.17-3.49,0-8-1.87-9.78-3.37-3.23-17.32-2.07-22.51-2,6.75-9,16.61-20,30.3-24.07C15.19,121.24,34.47,92.27,47.68,81c-1.45,9.1-1.16,15.45-.82,23.36,7.94-3.49,16-6.55,24.24-9.24A75.11,75.11,0,0,1,89.21,73.84a14.9,14.9,0,0,1,1-3.06C88.1,61.4,89,51.45,86.94,42.09l-1.87-8.56,8.45,2.38a1.83,1.83,0,0,1,.37.11Z"/><path class="cls-2" d="M71.15,227.48c21,32.46,50.23,59.53,85.46,79,36.14-20,65.91-47.91,87-81.47a223.37,223.37,0,0,0,14.83-27.58,31.61,31.61,0,0,0,33.31-28.15c.62-5.92-.91-11.62-1.93-17.41-2.72-15.62.34-20.69,12.19-26-7.51-1.22-16.75-1.84-22.54,1,7.68-21.57-5.56-33.19-20.69-38.32,5.9,8.84,7,15.25,5.24,20.47a271.32,271.32,0,0,0-221.41,3c-1.13-4.82-1.33-10.57-.91-17.77-12.47,18.74-17.15,39.54-2.55,57.12-12.36,1.45-20.44,7.23-28.63,15.08,15.22-.25,20.66,3.37,18.79,21.12-1.5,14.4,4.62,26.53,16.19,33.68a44.49,44.49,0,0,0,25.63,6.15Z"/><path class="cls-3" d="M156.61,291.32A225,225,0,0,0,232.5,218c.77-1.22,1.53-2.44,2.27-3.69H78.49c.74,1.25,1.5,2.47,2.27,3.69a225.24,225.24,0,0,0,75.86,73.3Z"/><path class="cls-4" d="M215.86,240.94A218.65,218.65,0,0,0,232.5,218a207.11,207.11,0,0,0,21.66-45.84l-53.89,8.28a26.26,26.26,0,0,0-6.83.17,26.59,26.59,0,0,0-6.78,2v-.08l-19.28,2.95v-10.6l-57.94,8.87v10.63L70.72,200.3c3.06,6,6.41,12,10,17.72A218,218,0,0,0,112,256.88l78.63-12a24.7,24.7,0,0,0,6.77-.14,25.15,25.15,0,0,0,6.63-1.93Z"/><path class="cls-5" d="M41.33,187.62c1.25-11.62-1.08-23.56-10.46-24.69C47.45,158,52,168.6,57.09,169.31c5.33.79,6-6.18,5-9.58C56.47,140.66,31,145.67,38.49,115.14c1.33,34.41,54.31,12.19,36.68,65.48-2.69,8.08,12.64,8.82,11.34-8.62,0,0,6.49,4.39,6.55,17.15l-8.62,1.3a6.39,6.39,0,0,0,.06-.71l-.34.77-20.75,3.17a24.63,24.63,0,0,0-4.79-.08c-4-8.08-3.2-17.58-11.91-22,5.36,5.07,4.17,17.4,4.08,23.92l-.31.14a13.2,13.2,0,0,0-1.36-1.76,16.7,16.7,0,0,0-7.88-5c0-.42.06-.88.09-1.33Z"/><path class="cls-4" d="M38.49,115.14c1.33,34.41,54.31,12.19,36.68,65.48a5.41,5.41,0,0,0-.31,2h0c-.65-2,.09-4.62,1.67-15.36s-2.64-15.25-2.64-15.25c1.33,4.14-.37,9.69-.37,9.69,1.42-16.1-13.46-19.13-25.34-26s-9.69-20.58-9.69-20.58Z"/><path class="cls-4" d="M41.33,187.62c1.25-11.62-1.08-23.56-10.46-24.69,0,0,15,.11,13.44,19.93-.2,2.78-.37,5.1-.48,7.09a18.07,18.07,0,0,0-2.58-1c0-.42.06-.88.09-1.33Zm46,2.41c1.67-4.45,3.69-10.26-.79-18,0,0,6.49,4.39,6.55,17.15Z"/><path class="cls-6" d="M30.87,162.94C47.45,158,52,168.6,57.09,169.31c5.33.79,6-6.18,5-9.58C56.47,140.66,31,145.67,38.49,115.14c-3.09,18.37,7.23,24.07,16.87,29.54S67,157.89,67,157.89a17.73,17.73,0,0,0-2.18-10.74c9,9.33,6.32,21.86,1,26.67s-13,.08-18.68-6.6-16.27-4.28-16.27-4.28Z"/><path class="cls-7" d="M287.26,131.67c-11.76,1.76-12.76,8.5-14.37,12.61-2.15,5.58-8.67,5.56-7.23-2.58,3.37-18.65,20.81-26.73,2-44.79,12,18-13.18,26.67-16.81,39.77-2,7.34,3.37,16.33.31,19.81s-14.68-9.61-5.38-25.06a39.82,39.82,0,0,0-10.23,35.86L258,163.87h0c1.25-.2,2.55-.37,3.86-.51v-.08l20.86-3.2c-1.7-9.58-5.21-20.3,4.54-28.4Z"/><path class="cls-4" d="M245.76,131.44a39.82,39.82,0,0,0-10.23,35.86l5.58-.85a33.17,33.17,0,0,1-3-12.7,46.1,46.1,0,0,0-.77,7.4c-3.06-17.29,8.39-29.71,8.39-29.71Z"/><path class="cls-4" d="M287.26,131.67c-11.76,1.76-12.76,8.5-14.37,12.61-2.15,5.58-8.67,5.56-7.23-2.58,3.23-17.89,19.39-26.05,4.11-42.63a18.62,18.62,0,0,1,2.95,19.67c-5.47,13.46-15.36,19.5-10.74,35a36.85,36.85,0,0,1,.77-8.19s-.28,5.84,5.56,5.44,5.75-7.91,8.28-11.56,4.76-6.18,10.69-7.71Z"/><path class="cls-6" d="M267.65,96.92c12,18-13.18,26.67-16.81,39.77-2,7.34,3.37,16.33.31,19.81s-14.68-9.61-5.38-25.06c0,0-8.05,12.3-4.93,21.63s16.84,10.52,15.25-.59c-1.3-9.24,3.15-17.23,8.42-23.24,0,0-7.29,4.37-9.55,9.24,0,0,.2-5,6-11.79s16.61-17.24,6.66-29.76Z"/><path class="cls-2" d="M156.61,5.27c-15.68,0-42.55,2.89-50.6,37.53a32.34,32.34,0,0,1-6.12-16c-1.67,7-.45,13.72.94,18.94A24.45,24.45,0,0,0,92.07,41c2.32,10.74,1,24.49,4.82,33.5C81.41,85.95,70,101.31,69.59,119.74c-1.39,57.37,54.88,69.11,87,106.41,32.17-37.3,88.44-49,87.05-106.41-.46-18.42-11.82-33.79-27.3-45.24,3.8-9,2.47-22.76,4.82-33.5a24.44,24.44,0,0,0-8.76,4.76c1.39-5.22,2.49-12.67.94-18.94a32.34,32.34,0,0,1-6.12,16C199.19,8.16,172.32,5.27,156.61,5.27Z"/><path class="cls-8" d="M122.94,134.82c-5.58-8.62,0-21.23,0-21.23C119,118.09,112.62,127.67,122.94,134.82Z"/><path class="cls-8" d="M176.15,108.17a21.82,21.82,0,0,1,.85,2.95c-7.91-2.32-11.73-.79-17.57-.28-1,.08-2,.14-3.2.14-7.85,0-11.51-2.58-20.75.14a23.73,23.73,0,0,1,.82-2.95c-2.52,1.33-5.27,5.7-5.58,7.4a16.53,16.53,0,0,1,6.78-1.16c5.56.23,10.35,2.27,18.74,2.32,1.7,0,3.26-.09,4.71-.23,5.67-.57,9.61-1.93,14-2.1a16.72,16.72,0,0,1,6.8,1.16C181.45,113.87,178.67,109.5,176.15,108.17Z"/><path class="cls-9" d="M156.61,132.41c-8.76,0-15.08,3.66-18.51,9.24a12.62,12.62,0,0,1,7.17-4.22c-1.64.62-7.4,4.65-5.39,11.17.94-3.85,6.75-8.16,16.72-8.16s15.82,4.31,16.75,8.16c2-6.52-3.74-10.54-5.38-11.17a12.62,12.62,0,0,1,7.17,4.22C171.72,136.06,165.4,132.41,156.61,132.41Z"/><path class="cls-10" d="M142.67,76.48c.06-9.67-1.7-21.54-9.72-29.45a33.48,33.48,0,0,1,2.86,14.06c-4.85-9.81-15.73-10.18-18.68-20.27A33.43,33.43,0,0,0,113,50.29C124,59.84,138.36,65.62,142.67,76.48Z"/><path class="cls-11" d="M200.27,50.29a34.25,34.25,0,0,0-4.14-9.47c-3,10.09-13.83,10.46-18.68,20.27A33.49,33.49,0,0,1,180.31,47c-8,7.91-9.78,19.79-9.72,29.45C174.9,65.62,189.3,59.84,200.27,50.29Z"/><path class="cls-12" d="M202.73,118.26c-.74-7.12-6.18-12.7-8-21.63-3.43-12.87,6.52-17.21,7.54-29a34.1,34.1,0,0,0,0-5.39A70.26,70.26,0,0,1,195,68.43c-.11,3.23-1.16,11.88-8.59,16.33a29.39,29.39,0,0,0,9.38-2.18c-6.8,7-17.6,6.35-24.8,1.47.14,1.56.74,5.16,1.11,8.25,2.38,1.28,16.3,9.13,25.71,22.76,0,0-12.61-12.56-25.57-17.24-1.28,4.73-8.16,11-15.62,11s-14.32-6.29-15.59-11c-13,4.68-25.57,17.24-25.57,17.24,9.41-13.63,23.33-21.49,25.71-22.76.37-3.09,1-6.69,1.11-8.25-7.2,4.88-18,5.56-24.8-1.47a29.37,29.37,0,0,0,9.38,2.18c-7.43-4.45-8.48-13.1-8.59-16.33a70.32,70.32,0,0,1-7.31-6.15,33.65,33.65,0,0,0,0,5.39c1,11.76,10.49,14.46,7,27.33-1.79,8.93-6.72,16.16-7.46,23.27-.82,8.11,1.25,17.32,15.53,27.61-2.5-14.83,6.52-22.39,16.24-25.31,4.14,1.47,24.52,1.47,28.66,0,9.72,2.92,18.74,10.49,16.21,25.31C201.49,135.58,203.56,126.37,202.73,118.26Zm-79.79,16.55c-10.32-7.14-4-16.72,0-21.23C122.94,113.58,117.35,126.2,122.94,134.82Zm52-20.41c-4.42.17-8.36,1.53-14,2.1-1.45.14-3,.23-4.71.23-8.39-.06-13.18-2.1-18.74-2.32a16.53,16.53,0,0,0-6.78,1.16c.31-1.7,3.06-6.07,5.58-7.4a23.73,23.73,0,0,0-.82,2.95c9.24-2.72,12.9-.14,20.75-.14,1.16,0,2.21-.06,3.2-.14,5.84-.51,9.67-2,17.57.28a21.82,21.82,0,0,0-.85-2.95c2.52,1.33,5.3,5.7,5.61,7.4A16.72,16.72,0,0,0,175,114.41Zm15.36,20.41c5.59-8.62,0-21.23,0-21.23C194.29,118.09,200.64,127.67,190.32,134.82Z"/><path class="cls-4" d="M139.89,148.59s-.2-9.5,15.08-11.25a19.52,19.52,0,0,0-5.56-.14s4.42-2.07,11.11-.31,12.42,6.75,12.84,11.71c-.93-3.85-6.75-8.16-16.75-8.16s-15.79,4.31-16.72,8.16Z"/><path class="cls-4" d="M156.61,108.85c-7.43,0-14.32-6.29-15.59-11-13,4.68-25.57,17.24-25.57,17.24s8.73-7.37,23.81-11.34c0,0-13.21,8-15.53,18.94,0,0-1.5-5.3-.79-9.07,0,0-5.58,12.61,0,21.23-10.32-7.14-4-16.72,0-21.23,0,0-11.74,7.46-6.24,23.87a52.06,52.06,0,0,0,9.35,8.42c-2.5-14.83,6.52-22.39,16.24-25.31,3.74,1.3,23.27,1.73,28.66,0,9.72,2.92,18.74,10.49,16.24,25.31a52.05,52.05,0,0,0,9.35-8.42c5.5-16.41-6.24-23.87-6.24-23.87,4,4.51,10.32,14.09,0,21.23,5.59-8.62,0-21.23,0-21.23.71,3.77-.79,9.07-.79,9.07-2.32-11-15.53-18.94-15.53-18.94,15.08,4,23.81,11.34,23.81,11.34s-12.61-12.56-25.57-17.24c-1.28,4.73-8.16,11-15.62,11Zm-.4,9.95c-11.68,0-22.93-5.13-26.65-.88.06-.25,1.28-2.95,1.45-3.32.85-2,3.15-5.3,5.27-6.43a23.73,23.73,0,0,0-.82,2.95c9.24-2.72,12.9-.14,20.75-.14H157c7.85,0,10.69-2.58,20,.14a21.82,21.82,0,0,0-.85-2.95c2.52,1.33,6.15,6,6.89,10-4.9-5.16-15.11.65-26.82.62Z"/><path class="cls-6" d="M115.46,115.06c9.41-13.63,23.33-21.49,25.71-22.76.23-2,.57-4.17.82-5.9-5.44,4.62-12.67,6.52-21.43,16.5a88.84,88.84,0,0,1,12.22-8.11c-10.23,8.56-17.32,20.27-17.32,20.27Z"/><path class="cls-6" d="M132.94,47a38.91,38.91,0,0,1,5.78,22.37l-.17.62a22.1,22.1,0,0,1,4.11,6.46c.06-9.67-1.7-21.54-9.72-29.45Z"/><path class="cls-4" d="M142,86.4c.14-1,.25-1.79.28-2.35-7.2,4.88-18,5.56-24.8-1.47a29.37,29.37,0,0,0,9.38,2.18c-7.43-4.45-8.48-13.1-8.59-16.33a70.32,70.32,0,0,1-7.31-6.15,33.65,33.65,0,0,0,0,5.39c.68,7.94,5.21,11.76,7,17.35a12.83,12.83,0,0,0,6.69,4.34,17.85,17.85,0,0,1-4.82.37s8.33,5.56,22.14-3.32Z"/><path class="cls-13" d="M122.6,70.53c2.78,10.23,12.41,11.2,16.75,7.85-4.87-3.94-10.15-4.08-16.75-7.85Z"/><path class="cls-14" d="M150,91.76a11.45,11.45,0,0,0,1.28,4.76c-7.74-6.46,1.28-21.74-2.55-32.34-3.49-9.61-6.75-14.68-5.22-26,0,0,.14,7,3.15,10.94,0,0-1.53-14.34,9.92-20.07,11.48,5.73,9.95,20.07,9.95,20.07,3-3.91,3.15-10.94,3.15-10.94,1.53,11.34-1.73,16.41-5.21,26-3.83,10.6,5.19,25.88-2.55,32.34a12,12,0,0,0,1.28-4.76c-4.31,7.91-8.87,7.91-13.18,0Z"/><path class="cls-15" d="M190.66,70.53c-2.78,10.23-12.42,11.2-16.75,7.85,4.88-3.94,10.15-4.08,16.75-7.85Z"/><path class="cls-16" d="M105.85,90.82c-3.09,7.71-13.38,41.36,7.88,65.59,0,0-2.58-8.62-1.42-12.78a47.14,47.14,0,0,0,18,11.62,38.7,38.7,0,0,0,26.28,12.3,38.71,38.71,0,0,0,26.3-12.3,47.14,47.14,0,0,0,18-11.62c1.16,4.17-1.42,12.78-1.42,12.78,21.26-24.24,11-57.88,7.88-65.59,7,4.37,26.62,20.81,18.91,50.34,5.3-5.64,8.31-14.26,8.31-14.26-4.05,36.94-35.52,48.1-61.06,66.59h0s10.54-13.12,22.45-21.17c0,0-19.67,4.73-39.4,26.39-19.7-21.66-39.37-26.39-39.37-26.39,11.91,8,22.45,21.17,22.45,21.17h0c-25.54-18.48-57-29.65-61.06-66.59,0,0,3,8.62,8.31,14.26-7.71-29.54,11.93-46,18.91-50.34Z"/><path class="cls-6" d="M105.19,170.36c-13.52-10.29-24.29-22.88-26.56-43.46,0,0,3,8.62,8.31,14.26-5.44-20.81,2.69-35.09,10.43-43.26-.2.23-20.86,24.78-3.17,52.19L88,146.44s2.55,10.54,17.15,23.92Z"/><path class="cls-4" d="M105.85,90.82c-3.09,7.71-13.38,41.36,7.88,65.59,0,0-2.58-8.62-1.42-12.78a47.14,47.14,0,0,0,18,11.62,38.7,38.7,0,0,0,26.28,12.3,38.71,38.71,0,0,0,26.3-12.3,47.14,47.14,0,0,0,18-11.62c1.16,4.17-1.42,12.78-1.42,12.78,21.26-24.24,11-57.88,7.88-65.59a37.23,37.23,0,0,1,4.22,3.09c.06.11,12.27,19.7,4.11,47.59,0,0,.57-8.48-.14-12.56,0,0,1.5,23.73-25.74,39.06,0,0,3.8-5.36,4.65-9.16,0,0-14.43,12.42-37.9,20.35-23.44-7.94-37.87-20.35-37.87-20.35.85,3.8,4.65,9.16,4.65,9.16-27.24-15.34-25.74-39.06-25.74-39.06-.71,4.08-.14,12.56-.14,12.56-8.16-27.89,4.05-47.48,4.11-47.59a37.15,37.15,0,0,1,4.22-3.09Z"/><path class="cls-17" d="M104,76.48c-6.12-7.51-3.09-18.74-5.07-25.14,6.41,7.26,7.68,16,5.07,25.14Z"/><path class="cls-2" d="M104.71,65.62c.31-.06.59-.14.91-.17l2.72-.51-.11,2.78c0,.82-.08,1.67-.17,2.49l-.17,1.59-1.62.37a9.39,9.39,0,0,0-4.34,2.41,4.69,4.69,0,0,0-1.59,3,1.73,1.73,0,0,0,1.19,1.62l1.84.79-1.22,3.83-2-.42c-3.4-.71-6-3.2-6-6.83a10.18,10.18,0,0,1,3.23-6.92,15.84,15.84,0,0,1,7.31-4.05Z"/><path class="cls-18" d="M104.6,67.83a5.8,5.8,0,0,1,.68-.14c0,.54-.06,1.33-.14,2.13l-.08,0c-3.77.91-6.86,4-6.86,6.8a3.47,3.47,0,0,0,2.3,3.29c-2.3-.48-3.83-2-3.83-4.2,0-3.29,3.54-6.83,7.94-7.91Z"/><path class="cls-19" d="M210.1,76.48c6.12-7.51,3.09-18.74,5.07-25.14-6.41,7.26-7.71,16-5.07,25.14Z"/><path class="cls-2" d="M209.4,65.62c-.31-.06-.6-.14-.91-.17l-2.72-.51.11,2.78c0,.82.09,1.67.17,2.49l.17,1.59,1.62.37a9.39,9.39,0,0,1,4.34,2.41,4.69,4.69,0,0,1,1.59,3,1.73,1.73,0,0,1-1.19,1.62l-1.84.79,1.22,3.83,2-.42c3.4-.71,6-3.2,6-6.83a10.1,10.1,0,0,0-3.26-6.92,15.89,15.89,0,0,0-7.29-4.05Z"/><path class="cls-20" d="M209.48,67.83c-.23-.06-.46-.11-.65-.14,0,.54.06,1.33.14,2.13l.06,0c3.8.91,6.86,4,6.86,6.8a3.49,3.49,0,0,1-2.27,3.29c2.3-.48,3.83-2,3.83-4.2,0-3.29-3.54-6.83-8-7.91Z"/><path class="cls-6" d="M197.8,115.06c-9.41-13.63-23.33-21.49-25.71-22.76-.23-2-.57-4.17-.82-5.9,5.44,4.62,12.67,6.52,21.43,16.5a87.48,87.48,0,0,0-12.25-8.11c10.26,8.56,17.35,20.27,17.35,20.27Z"/><path class="cls-4" d="M171.27,86.4c-.14-1-.25-1.79-.28-2.35,7.2,4.88,18,5.56,24.8-1.47a29.39,29.39,0,0,1-9.38,2.18c7.43-4.45,8.47-13.1,8.59-16.33a70.26,70.26,0,0,0,7.31-6.15,34.1,34.1,0,0,1,0,5.39c-.68,7.94-5.22,11.76-7,17.35a12.83,12.83,0,0,1-6.69,4.34,17.85,17.85,0,0,0,4.82.37s-8.33,5.56-22.14-3.32Z"/><path class="cls-6" d="M180.31,47a38.91,38.91,0,0,0-5.78,22.37l.17.62a22.1,22.1,0,0,0-4.11,6.46c-.06-9.67,1.7-21.54,9.72-29.45Z"/><path class="cls-6" d="M208.06,170.36c13.52-10.29,24.29-22.88,26.56-43.46,0,0-3,8.62-8.31,14.26,5.44-20.81-2.69-35.09-10.43-43.26.2.23,20.86,24.78,3.17,52.19l6.15-3.66s-2.55,10.54-17.15,23.92Z"/><path class="cls-2" d="M261.86,163.36v-.08l49.32-7.57-10.54,41.73v22.79L204,235a25.19,25.19,0,0,1-6.63,1.93,23.64,23.64,0,0,1-6.77.14L67.41,256v-.26a25.74,25.74,0,0,1-7.34,2.3,22.28,22.28,0,0,1-9.95-.62A18.27,18.27,0,0,1,46.8,256a20.31,20.31,0,0,1-5.41,3.17,40.28,40.28,0,0,1-8.79,2.15L5.53,265.46V191.93l17.75-2.72c4.45-.68,10.43-1.56,14.91-.94a17.54,17.54,0,0,1,10.94,5.67,13.2,13.2,0,0,1,1.36,1.76A25.86,25.86,0,0,1,57,193.8a24.51,24.51,0,0,1,6.43-.11l46-7.06V176l57.94-8.87v10.63l19.28-2.95v.06a25.47,25.47,0,0,1,6.78-2,25.12,25.12,0,0,1,6.83-.2L258,163.87h0c1.25-.2,2.55-.37,3.86-.51Z"/><path class="cls-21" d="M15.68,200.66l9.13-1.39c5.9-.91,9.86-1.22,11.93-.94a7.52,7.52,0,0,1,4.73,2.3,8.58,8.58,0,0,1,2,4.34,81.6,81.6,0,0,1,.4,10v18.54a50.17,50.17,0,0,1-.59,9.64,8.86,8.86,0,0,1-2.07,4.08,9.76,9.76,0,0,1-3.66,2.44A30.84,30.84,0,0,1,31,251.26l-15.36,2.35Zm94.54-3.85,5.58,41.44-9.95,1.53-.54-7.51-3.51.54-.54,7.68-10.09,1.56,5-43.09Zm-5.16,28q-.72-7.06-1.47-17.57c-1,8.28-1.59,14.29-1.84,18.08Zm-12-25.4v8.48l-5.73.88v33.85l-9.78,1.5V210.25l-5.78.91v-8.48ZM69.79,227.79c0,4.28-.08,7.29-.28,9.07a12.56,12.56,0,0,1-1.64,5.1,11.81,11.81,0,0,1-3.8,4,13.83,13.83,0,0,1-5.56,2,11.66,11.66,0,0,1-5.39-.28,7.24,7.24,0,0,1-3.86-2.72,9.53,9.53,0,0,1-1.73-4.59c-.17-1.7-.28-4.73-.28-9.1V224c0-4.25.08-7.29.28-9.07a12.15,12.15,0,0,1,1.64-5.1,11.82,11.82,0,0,1,3.8-4,13.88,13.88,0,0,1,5.53-2,12.17,12.17,0,0,1,5.41.28,7.37,7.37,0,0,1,3.83,2.75,9.19,9.19,0,0,1,1.76,4.56c.17,1.7.28,4.76.28,9.1ZM60,215.4a14.26,14.26,0,0,0-.28-3.74.92.92,0,0,0-1.16-.62,1.46,1.46,0,0,0-1.13.82c-.28.48-.4,1.81-.4,4v19.76a21.84,21.84,0,0,0,.25,4.48.94.94,0,0,0,1.22.68,1.47,1.47,0,0,0,1.25-1.16,26.42,26.42,0,0,0,.25-4.76Zm-32.12-7.57V242.7c1.73-.25,2.81-.82,3.2-1.67s.6-3.06.6-6.61V213.82a29.6,29.6,0,0,0-.2-4.56,1.81,1.81,0,0,0-.91-1.36,5,5,0,0,0-2.69-.06Z"/><path class="cls-22" d="M43.91,225.67v7.88a50.17,50.17,0,0,1-.59,9.64,8.86,8.86,0,0,1-2.07,4.08,9.76,9.76,0,0,1-3.66,2.44A30.84,30.84,0,0,1,31,251.26l-14.17,2.15V229.66l11-1.64V242.7a6.23,6.23,0,0,0,1.19-.25v.25c1.73-.25,2.81-.82,3.2-1.67s.6-3.06.6-6.61v-7.14Zm68.83-10.18,3.06,22.76L107,239.61l-.51-7.34-1.19.2v-.2l-3.51.54-.54,7.68-8.87,1.36L95.1,218.1l7.37-1.11c-.34,3.46-.59,6.24-.74,8.33l1.19-.17v.17l3.29-.51c-.23-2.44-.48-5.19-.74-8.25Zm-25.4,3.74v23.39l-8.59,1.33V220.51Zm-17.55,8.56c0,4.28-.08,7.29-.28,9.07a12.56,12.56,0,0,1-1.64,5.1,11.81,11.81,0,0,1-3.8,4,13.83,13.83,0,0,1-5.56,2,15.94,15.94,0,0,1-1.59.17,10.91,10.91,0,0,1-2.61-.45,7.14,7.14,0,0,1-3.86-2.72,9.26,9.26,0,0,1-1.73-4.59c-.2-1.7-.28-4.73-.28-9.1V225L57,223.71v11.91a21.84,21.84,0,0,0,.25,4.48.94.94,0,0,0,1.22.68,1.4,1.4,0,0,0,.37-.08,1.2,1.2,0,0,0,.79.08,1.41,1.41,0,0,0,1.25-1.16,23.07,23.07,0,0,0,.28-4.76V223.12l8.59-1.28Z"/><path class="cls-23" d="M297.58,168.09l-7.12,28.09v15.31l-9,1.39V197.55l-6.86-25.94,8.93-1.36q2.09,12.07,2.38,16.33.85-6.89,2.72-17.12ZM157.21,179v53l-10.66,1.62,0-35.72-4.25,36.37-7.46,1.16-4.48-34.27,0,35-10.69,1.64v-53l15.76-2.41c.45,3.12.93,6.83,1.45,11.06l1.73,13.18,2.78-25.14ZM178,186.41l5.58,41.47-9.95,1.53-.54-7.51-3.52.54-.54,7.68-10.09,1.53,5-43.06Zm-5.16,28c-.48-4.73-1-10.57-1.47-17.6q-1.45,12.42-1.84,18.11ZM205.85,195l-9.07,1.39v-3.15a6.66,6.66,0,0,0-.34-2.75,1.1,1.1,0,0,0-1.16-.43,1.75,1.75,0,0,0-1.3,1,5.49,5.49,0,0,0-.45,2.52,7,7,0,0,0,.51,3.09,6.53,6.53,0,0,0,2.75,2.18c4.34,2.24,7.06,4.22,8.16,5.92s1.7,4.59,1.7,8.73a19,19,0,0,1-.94,6.83,9.83,9.83,0,0,1-3.63,4.14,14.6,14.6,0,0,1-6.24,2.41,11.92,11.92,0,0,1-6.69-.65,6.42,6.42,0,0,1-3.6-3.71,23.35,23.35,0,0,1-.85-7.2v-2.78l9-1.39v5.13a7,7,0,0,0,.4,3c.23.42.68.57,1.33.48a1.89,1.89,0,0,0,1.45-1.08,6,6,0,0,0,.48-2.64c0-2.49-.31-4.08-.91-4.73a22.62,22.62,0,0,0-4.56-3.15,36.18,36.18,0,0,1-4.79-3.23,7.64,7.64,0,0,1-2-3.09,15.76,15.76,0,0,1-.77-5.41,19,19,0,0,1,1.08-7.28,9.74,9.74,0,0,1,3.57-4.05,14.34,14.34,0,0,1,5.9-2.18,13.22,13.22,0,0,1,6.46.4,5.74,5.74,0,0,1,3.54,2.95c.57,1.33.88,3.66.88,7Zm23.5-16.44V187l-5.72.88v33.87l-9.78,1.47V189.38l-5.78.88v-8.45Zm2.24-.34,16.24-2.49v8.45l-6.49,1v8.08l6.06-.93v8l-6.06.94v9.3l7.17-1.08v8.45l-16.92,2.58Zm19.7-3,6.89-1a47.76,47.76,0,0,1,9.32-.85,5.39,5.39,0,0,1,4,2.47Q273,178,273,183.4c0,3.29-.37,5.56-1.08,6.8s-2.15,2.13-4.28,2.69c1.93.23,3.23.77,3.88,1.56a5.52,5.52,0,0,1,1.25,2.32A48,48,0,0,1,273,203v11.17l-9,1.39V201.49c0-2.27-.17-3.66-.48-4.14s-1.13-.65-2.47-.45V216l-9.75,1.5Zm9.75,5.73v9.41a4.52,4.52,0,0,0,2.3-.85c.43-.4.65-1.56.65-3.4v-2.33c0-1.36-.23-2.21-.62-2.55a3,3,0,0,0-2.32-.28Z"/><path class="cls-14" d="M292.28,189l-1.81,7.23v15.31l-7.82,1.19V197.55l-1.84-6.89Zm-135.07,20v23l-9.47,1.45,0-23ZM145,210.73l-2.75,23.47-6.32,1L133,212.49Zm-14.71,2.15V236l-9.5,1.45V214.3Zm50.23-7.43,3,22.42-8.79,1.36-.51-7.34-1.19.17v-.17l-3.52.54-.54,7.68-8.87,1.36,2.66-23.39,7.4-1.11c-.34,3.29-.57,6-.71,8l1.19-.17V215l3.29-.51c-.23-2.35-.45-5-.71-7.91Zm21.8-3.2a10.64,10.64,0,0,1,2.61,2.55c1.13,1.67,1.7,4.59,1.7,8.73a19,19,0,0,1-.94,6.83,9.83,9.83,0,0,1-3.63,4.14,14.6,14.6,0,0,1-6.24,2.41c-.62.09-1.22.14-1.81.17a10.18,10.18,0,0,1-3.69-.82,6.34,6.34,0,0,1-3.6-3.71,22.34,22.34,0,0,1-.88-7.2v-2.78l7.88-1.22v5a7,7,0,0,0,.4,3c.23.42.68.57,1.33.48a1.33,1.33,0,0,0,.31-.09,1.43,1.43,0,0,0,.88.09,1.89,1.89,0,0,0,1.45-1.08,6,6,0,0,0,.48-2.64c0-2.49-.31-4.08-.91-4.73a23.55,23.55,0,0,0-4.56-3.15,34.28,34.28,0,0,1-4.79-3.23,5.38,5.38,0,0,1-.57-.57Zm21.29-3.15v22.65l-8.59,1.3V200.35Zm23.78-3.51v4.73l-6.06.94v9.3l1.19-.17v.17l6-.91v8.28l-15.73,2.41V197.75Zm21.86-3.23a14.78,14.78,0,0,1-1.59.54c1.93.23,3.23.77,3.88,1.56a5.52,5.52,0,0,1,1.25,2.32A48,48,0,0,1,273,203v11.17l-7.85,1.22V201.49c0-2.27-.17-3.66-.48-4.14s-1-.62-2.07-.48a5,5,0,0,0-1.59,0V216l-8.59,1.33V194.83Z"/></svg>